<?xml version="1.0" encoding="UTF-8" standalone="no"?>
<!-- Created with Inkscape (http://www.inkscape.org/) -->

<svg
   xmlns:dc="http://purl.org/dc/elements/1.1/"
   xmlns:cc="http://creativecommons.org/ns#"
   xmlns:rdf="http://www.w3.org/1999/02/22-rdf-syntax-ns#"
   xmlns:svg="http://www.w3.org/2000/svg"
   xmlns="http://www.w3.org/2000/svg"
   xmlns:sodipodi="http://sodipodi.sourceforge.net/DTD/sodipodi-0.dtd"
   xmlns:inkscape="http://www.inkscape.org/namespaces/inkscape"
   width="1700"
   height="1700"
   id="svg2"
   version="1.1"
   inkscape:version="0.48.0 r9654"
   sodipodi:docname="bkg.svg">
  <defs
     id="defs4" />
  <sodipodi:namedview
     id="base"
     pagecolor="#ffffff"
     bordercolor="#666666"
     borderopacity="1.0"
     inkscape:pageopacity="0.0"
     inkscape:pageshadow="2"
     inkscape:zoom="0.24748738"
     inkscape:cx="2158.7866"
     inkscape:cy="893.87919"
     inkscape:document-units="px"
     inkscape:current-layer="layer1"
     showgrid="false"
     inkscape:window-width="1680"
     inkscape:window-height="967"
     inkscape:window-x="-3"
     inkscape:window-y="-6"
     inkscape:window-maximized="1"
     borderlayer="true"
     inkscape:snap-global="false" />
  <metadata
     id="metadata7">
    <rdf:RDF>
      <cc:Work
         rdf:about="">
        <dc:format>image/svg+xml</dc:format>
        <dc:type
           rdf:resource="http://purl.org/dc/dcmitype/StillImage" />
        <dc:title></dc:title>
      </cc:Work>
    </rdf:RDF>
  </metadata>
  <g
     inkscape:label="Calque 1"
     inkscape:groupmode="layer"
     id="layer1"
     transform="translate(0,647.63782)">
    <rect
       style="fill:#0066ff;fill-opacity:1;fill-rule:nonzero;stroke:none"
       id="rect3755"
       width="300"
       height="1200"
       x="144.13245"
       y="-704.39569"
       transform="matrix(0.70710678,0.70710678,-0.70710678,0.70710678,0,0)" />
    <rect
       y="-704.39569"
       x="444.13245"
       height="1200"
       width="300"
       id="rect3757"
       style="fill:#ff6600;fill-opacity:1;fill-rule:nonzero;stroke:none"
       transform="matrix(0.70710678,0.70710678,-0.70710678,0.70710678,0,0)" />
    <rect
       style="fill:#ffcc00;fill-opacity:1;fill-rule:nonzero;stroke:none"
       id="rect3759"
       width="300"
       height="1200"
       x="744.13245"
       y="-704.39569"
       transform="matrix(0.70710678,0.70710678,-0.70710678,0.70710678,0,0)" />
    <rect
       y="-704.39569"
       x="1044.1324"
       height="1200"
       width="300"
       id="rect3761"
       style="fill:#800000;fill-opacity:1;fill-rule:nonzero;stroke:none"
       transform="matrix(0.70710678,0.70710678,-0.70710678,0.70710678,0,0)" />
    <rect
       y="-1892.3351"
       x="144.1324"
       height="1200"
       width="300"
       id="rect3810"
       style="fill:#0066ff;fill-opacity:1;fill-rule:nonzero;stroke:none"
       transform="matrix(0.70710678,0.70710678,-0.70710678,0.70710678,0,0)" />
    <rect
       style="fill:#ff6600;fill-opacity:1;fill-rule:nonzero;stroke:none"
       id="rect3812"
       width="300"
       height="1200"
       x="444.13242"
       y="-1892.3351"
       transform="matrix(0.70710678,0.70710678,-0.70710678,0.70710678,0,0)" />
    <rect
       y="-1892.3351"
       x="744.13239"
       height="1200"
       width="300"
       id="rect3814"
       style="fill:#ffcc00;fill-opacity:1;fill-rule:nonzero;stroke:none"
       transform="matrix(0.70710678,0.70710678,-0.70710678,0.70710678,0,0)" />
    <rect
       style="fill:#800000;fill-opacity:1;fill-rule:nonzero;stroke:none"
       id="rect3816"
       width="300"
       height="1200"
       x="1044.1324"
       y="-1892.3351"
       transform="matrix(0.70710678,0.70710678,-0.70710678,0.70710678,0,0)" />
    <rect
       style="fill:#0b8c8f;fill-opacity:1;fill-rule:nonzero;stroke:none"
       id="rect3822"
       width="300"
       height="1200"
       x="144.1324"
       y="479.50305"
       transform="matrix(0.70710678,0.70710678,-0.70710678,0.70710678,0,0)" />
    <rect
       y="479.50305"
       x="444.13242"
       height="1200"
       width="300"
       id="rect3824"
       style="fill:#ff6600;fill-opacity:1;fill-rule:nonzero;stroke:none"
       transform="matrix(0.70710678,0.70710678,-0.70710678,0.70710678,0,0)" />
    <rect
       style="fill:#ffcc00;fill-opacity:1;fill-rule:nonzero;stroke:none"
       id="rect3826"
       width="300"
       height="1200"
       x="744.13239"
       y="479.50305"
       transform="matrix(0.70710678,0.70710678,-0.70710678,0.70710678,0,0)" />
    <rect
       y="479.50305"
       x="1044.1324"
       height="1200"
       width="300"
       id="rect3828"
       style="fill:#2b2825;fill-opacity:1;fill-rule:nonzero;stroke:none"
       transform="matrix(0.70710678,0.70710678,-0.70710678,0.70710678,0,0)" />
    <rect
       y="-1903.9519"
       x="1343.6886"
       height="1200"
       width="300"
       id="rect3086"
       style="fill:#0066ff;fill-opacity:1;fill-rule:nonzero;stroke:none"
       transform="matrix(0.70710678,0.70710678,-0.70710678,0.70710678,0,0)" />
    <rect
       style="fill:#ff6600;fill-opacity:1;fill-rule:nonzero;stroke:none"
       id="rect3088"
       width="300"
       height="1200"
       x="1643.6886"
       y="-1903.9519"
       transform="matrix(0.70710678,0.70710678,-0.70710678,0.70710678,0,0)" />
    <rect
       y="-1903.9519"
       x="1943.6886"
       height="1200"
       width="300"
       id="rect3090"
       style="fill:#ff6600;fill-opacity:1;fill-rule:nonzero;stroke:none"
       transform="matrix(0.70710678,0.70710678,-0.70710678,0.70710678,0,0)" />
    <rect
       style="fill:#ff6600;fill-opacity:1;fill-rule:nonzero;stroke:none"
       id="rect3092"
       width="300"
       height="1200"
       x="2243.6887"
       y="-1903.9519"
       transform="matrix(0.70710678,0.70710678,-0.70710678,0.70710678,0,0)" />
    <g
       id="g3094"
       transform="matrix(0.70710678,0.70710678,-0.70710678,0.70710678,3032.0329,-1131.7703)">
      <g
         id="g3096">
        <rect
           style="fill:#0b8c8f;fill-opacity:1;fill-rule:nonzero;stroke:none"
           id="rect3098"
           width="300"
           height="1200"
           x="0"
           y="-147.63782" />
        <rect
           y="-147.63782"
           x="300"
           height="1200"
           width="300"
           id="rect3100"
           style="fill:#fcf8bc;fill-opacity:1;fill-rule:nonzero;stroke:none" />
        <rect
           style="fill:#cacf43;fill-opacity:1;fill-rule:nonzero;stroke:none"
           id="rect3102"
           width="300"
           height="1200"
           x="600"
           y="-147.63782" />
        <rect
           y="-147.63782"
           x="900"
           height="1200"
           width="300"
           id="rect3104"
           style="fill:#2b2825;fill-opacity:1;fill-rule:nonzero;stroke:none" />
      </g>
    </g>
    <rect
       y="-720.0531"
       x="1343.6886"
       height="1200"
       width="300"
       id="rect3110"
       style="fill:#0066ff;fill-opacity:1;fill-rule:nonzero;stroke:none"
       transform="matrix(0.70710678,0.70710678,-0.70710678,0.70710678,0,0)" />
    <rect
       style="fill:#ff6600;fill-opacity:1;fill-rule:nonzero;stroke:none"
       id="rect3112"
       width="300"
       height="1200"
       x="1643.6886"
       y="-720.0531"
       transform="matrix(0.70710678,0.70710678,-0.70710678,0.70710678,0,0)" />
    <rect
       y="-720.0531"
       x="1943.6886"
       height="1200"
       width="300"
       id="rect3114"
       style="fill:#800000;fill-opacity:1;fill-rule:nonzero;stroke:none"
       transform="matrix(0.70710678,0.70710678,-0.70710678,0.70710678,0,0)" />
    <rect
       style="fill:#2b2825;fill-opacity:1;fill-rule:nonzero;stroke:none"
       id="rect3116"
       width="300"
       height="1200"
       x="2243.6885"
       y="-720.0531"
       transform="matrix(0.70710678,0.70710678,-0.70710678,0.70710678,0,0)" />
    <rect
       y="-1904.3938"
       x="-1055.8657"
       height="1200"
       width="300"
       id="rect3202"
       style="fill:#800000;fill-opacity:1;fill-rule:nonzero;stroke:none"
       transform="matrix(0.70710678,0.70710678,-0.70710678,0.70710678,0,0)" />
    <rect
       style="fill:#800000;fill-opacity:1;fill-rule:nonzero;stroke:none"
       id="rect3204"
       width="300"
       height="1200"
       x="-755.86572"
       y="-1904.3938"
       transform="matrix(0.70710678,0.70710678,-0.70710678,0.70710678,0,0)" />
    <rect
       y="-1904.3938"
       x="-455.86569"
       height="1200"
       width="300"
       id="rect3206"
       style="fill:#ffcc00;fill-opacity:1;fill-rule:nonzero;stroke:none"
       transform="matrix(0.70710678,0.70710678,-0.70710678,0.70710678,0,0)" />
    <rect
       style="fill:#800000;fill-opacity:1;fill-rule:nonzero;stroke:none"
       id="rect3208"
       width="300"
       height="1200"
       x="-155.86571"
       y="-1904.3938"
       transform="matrix(0.70710678,0.70710678,-0.70710678,0.70710678,0,0)" />
    <g
       id="g3210"
       transform="matrix(0.70710678,0.70710678,-0.70710678,0.70710678,1335.6043,-2828.8239)">
      <g
         id="g3212">
        <rect
           style="fill:#0b8c8f;fill-opacity:1;fill-rule:nonzero;stroke:none"
           id="rect3214"
           width="300"
           height="1200"
           x="0"
           y="-147.63782" />
        <rect
           y="-147.63782"
           x="300"
           height="1200"
           width="300"
           id="rect3216"
           style="fill:#fcf8bc;fill-opacity:1;fill-rule:nonzero;stroke:none" />
        <rect
           style="fill:#cacf43;fill-opacity:1;fill-rule:nonzero;stroke:none"
           id="rect3218"
           width="300"
           height="1200"
           x="600"
           y="-147.63782" />
        <rect
           y="-147.63782"
           x="900"
           height="1200"
           width="300"
           id="rect3220"
           style="fill:#2b2825;fill-opacity:1;fill-rule:nonzero;stroke:none" />
      </g>
    </g>
    <rect
       y="-720.49506"
       x="-1055.8657"
       height="1200"
       width="300"
       id="rect3226"
       style="fill:#0b8c8f;fill-opacity:1;fill-rule:nonzero;stroke:none"
       transform="matrix(0.70710678,0.70710678,-0.70710678,0.70710678,0,0)" />
    <rect
       style="fill:#fcf8bc;fill-opacity:1;fill-rule:nonzero;stroke:none"
       id="rect3228"
       width="300"
       height="1200"
       x="-755.86566"
       y="-720.49506"
       transform="matrix(0.70710678,0.70710678,-0.70710678,0.70710678,0,0)" />
    <rect
       y="-720.49506"
       x="-455.86569"
       height="1200"
       width="300"
       id="rect3230"
       style="fill:#ffcc00;fill-opacity:1;fill-rule:nonzero;stroke:none"
       transform="matrix(0.70710678,0.70710678,-0.70710678,0.70710678,0,0)" />
    <rect
       style="fill:#800000;fill-opacity:1;fill-rule:nonzero;stroke:none"
       id="rect3232"
       width="300"
       height="1200"
       x="-155.86568"
       y="-720.49506"
       transform="matrix(0.70710678,0.70710678,-0.70710678,0.70710678,0,0)" />
  </g>
</svg>
