<?xml version="1.0" encoding="UTF-8" standalone="no"?>
<!-- Created with Inkscape (http://www.inkscape.org/) -->

<svg
   xmlns:dc="http://purl.org/dc/elements/1.1/"
   xmlns:cc="http://creativecommons.org/ns#"
   xmlns:rdf="http://www.w3.org/1999/02/22-rdf-syntax-ns#"
   xmlns:svg="http://www.w3.org/2000/svg"
   xmlns="http://www.w3.org/2000/svg"
   xmlns:sodipodi="http://sodipodi.sourceforge.net/DTD/sodipodi-0.dtd"
   xmlns:inkscape="http://www.inkscape.org/namespaces/inkscape"
   width="1700"
   height="1700"
   id="svg2"
   version="1.1"
   inkscape:version="0.48.0 r9654"
   sodipodi:docname="bkg.svg"
   inkscape:export-filename="/home/ouardane/Images/Loisir/meta/meta-site/img/bkg.png"
   inkscape:export-xdpi="90"
   inkscape:export-ydpi="90">
  <defs
     id="defs4" />
  <sodipodi:namedview
     id="base"
     pagecolor="#ffffff"
     bordercolor="#666666"
     borderopacity="1.0"
     inkscape:pageopacity="0.0"
     inkscape:pageshadow="2"
     inkscape:zoom="0.1767767"
     inkscape:cx="-1510.8243"
     inkscape:cy="330.57488"
     inkscape:document-units="px"
     inkscape:current-layer="layer1"
     showgrid="false"
     inkscape:window-width="1680"
     inkscape:window-height="968"
     inkscape:window-x="-4"
     inkscape:window-y="-3"
     inkscape:window-maximized="1"
     borderlayer="true"
     inkscape:snap-global="false" />
  <metadata
     id="metadata7">
    <rdf:RDF>
      <cc:Work
         rdf:about="">
        <dc:format>image/svg+xml</dc:format>
        <dc:type
           rdf:resource="http://purl.org/dc/dcmitype/StillImage" />
        <dc:title></dc:title>
      </cc:Work>
    </rdf:RDF>
  </metadata>
  <g
     inkscape:label="Calque 1"
     inkscape:groupmode="layer"
     id="layer1"
     transform="translate(0,647.63782)">
    <g
       id="g3117"
       transform="matrix(0.70710678,0.70710678,-0.70710678,0.70710678,2594.7078,2597.9377)">
      <g
         transform="matrix(0.70710678,-1.9091883,0.70710678,1.9091883,-3009.0301,-5696.4477)"
         id="g3069">
        <rect
           style="fill:#0066ff;fill-opacity:1;fill-rule:nonzero;stroke:none"
           id="rect3755-2"
           width="300"
           height="1200"
           x="-1718.5889"
           y="1392.6809"
           transform="matrix(0.70710678,0.70710678,-0.70710678,0.70710678,0,0)" />
        <rect
           y="1392.6809"
           x="-1418.5889"
           height="1200"
           width="300"
           id="rect3757-8"
           style="fill:#ff6600;fill-opacity:1;fill-rule:nonzero;stroke:none"
           transform="matrix(0.70710678,0.70710678,-0.70710678,0.70710678,0,0)" />
        <rect
           style="fill:#ffcc00;fill-opacity:1;fill-rule:nonzero;stroke:none"
           id="rect3759-9"
           width="300"
           height="1200"
           x="-1118.5889"
           y="1392.6809"
           transform="matrix(0.70710678,0.70710678,-0.70710678,0.70710678,0,0)" />
        <rect
           y="1392.6809"
           x="-818.58881"
           height="1200"
           width="300"
           id="rect3761-7"
           style="fill:#800000;fill-opacity:1;fill-rule:nonzero;stroke:none"
           transform="matrix(0.70710678,0.70710678,-0.70710678,0.70710678,0,0)" />
      </g>
      <g
         id="g3075"
         transform="matrix(0.70710678,-1.9091883,0.70710678,1.9091883,-1809.0301,-5696.4477)">
        <rect
           transform="matrix(0.70710678,0.70710678,-0.70710678,0.70710678,0,0)"
           y="1392.6809"
           x="-1718.5889"
           height="1200"
           width="300"
           id="rect3077"
           style="fill:#0066ff;fill-opacity:1;fill-rule:nonzero;stroke:none" />
        <rect
           transform="matrix(0.70710678,0.70710678,-0.70710678,0.70710678,0,0)"
           style="fill:#ff6600;fill-opacity:1;fill-rule:nonzero;stroke:none"
           id="rect3079"
           width="300"
           height="1200"
           x="-1418.5889"
           y="1392.6809" />
        <rect
           transform="matrix(0.70710678,0.70710678,-0.70710678,0.70710678,0,0)"
           y="1392.6809"
           x="-1118.5889"
           height="1200"
           width="300"
           id="rect3081"
           style="fill:#ffcc00;fill-opacity:1;fill-rule:nonzero;stroke:none" />
        <rect
           transform="matrix(0.70710678,0.70710678,-0.70710678,0.70710678,0,0)"
           style="fill:#800000;fill-opacity:1;fill-rule:nonzero;stroke:none"
           id="rect3083"
           width="300"
           height="1200"
           x="-818.58881"
           y="1392.6809" />
      </g>
      <g
         transform="matrix(0.70710678,-1.9091883,0.70710678,1.9091883,-609.03,-5696.4477)"
         id="g3107">
        <rect
           style="fill:#0066ff;fill-opacity:1;fill-rule:nonzero;stroke:none"
           id="rect3109"
           width="300"
           height="1200"
           x="-1718.5889"
           y="1392.6809"
           transform="matrix(0.70710678,0.70710678,-0.70710678,0.70710678,0,0)" />
        <rect
           y="1392.6809"
           x="-1418.5889"
           height="1200"
           width="300"
           id="rect3111"
           style="fill:#ff6600;fill-opacity:1;fill-rule:nonzero;stroke:none"
           transform="matrix(0.70710678,0.70710678,-0.70710678,0.70710678,0,0)" />
        <rect
           style="fill:#ffcc00;fill-opacity:1;fill-rule:nonzero;stroke:none"
           id="rect3113"
           width="300"
           height="1200"
           x="-1118.5889"
           y="1392.6809"
           transform="matrix(0.70710678,0.70710678,-0.70710678,0.70710678,0,0)" />
        <rect
           y="1392.6809"
           x="-818.58881"
           height="1200"
           width="300"
           id="rect3115"
           style="fill:#800000;fill-opacity:1;fill-rule:nonzero;stroke:none"
           transform="matrix(0.70710678,0.70710678,-0.70710678,0.70710678,0,0)" />
      </g>
    </g>
  </g>
</svg>
