<?xml version="1.0" encoding="UTF-8" standalone="no"?>
<!-- Created with Inkscape (http://www.inkscape.org/) -->

<svg
   xmlns:dc="http://purl.org/dc/elements/1.1/"
   xmlns:cc="http://creativecommons.org/ns#"
   xmlns:rdf="http://www.w3.org/1999/02/22-rdf-syntax-ns#"
   xmlns:svg="http://www.w3.org/2000/svg"
   xmlns="http://www.w3.org/2000/svg"
   xmlns:xlink="http://www.w3.org/1999/xlink"
   xmlns:sodipodi="http://sodipodi.sourceforge.net/DTD/sodipodi-0.dtd"
   xmlns:inkscape="http://www.inkscape.org/namespaces/inkscape"
   width="210mm"
   height="297mm"
   id="svg2"
   version="1.1"
   inkscape:version="0.48.0 r9654"
   sodipodi:docname="index_txt.svg">
  <defs
     id="defs4">
    <linearGradient
       inkscape:collect="always"
       id="linearGradient4107">
      <stop
         style="stop-color:#550000;stop-opacity:1"
         offset="0"
         id="stop4109" />
      <stop
         id="stop4115"
         offset="0.32993948"
         style="stop-color:#ffcc00;stop-opacity:1" />
      <stop
         style="stop-color:#ff6600;stop-opacity:1"
         offset="0.66496974"
         id="stop4117" />
      <stop
         style="stop-color:#0066ff;stop-opacity:1"
         offset="1"
         id="stop4111" />
    </linearGradient>
    <filter
       color-interpolation-filters="sRGB"
       inkscape:collect="always"
       id="filter3937">
      <feGaussianBlur
         inkscape:collect="always"
         stdDeviation="3.5391023"
         id="feGaussianBlur3939" />
    </filter>
    <filter
       color-interpolation-filters="sRGB"
       inkscape:collect="always"
       id="filter3654">
      <feGaussianBlur
         inkscape:collect="always"
         stdDeviation="0.90913727"
         id="feGaussianBlur3656" />
    </filter>
    <clipPath
       clipPathUnits="userSpaceOnUse"
       id="clipPath3261">
      <path
         transform="translate(454.9246,-3.8078231)"
         sodipodi:type="arc"
         style="fill:#2c5aa0;fill-opacity:1;fill-rule:nonzero;stroke:none"
         id="path3263"
         sodipodi:cx="-28.789347"
         sodipodi:cy="184.64114"
         sodipodi:rx="377.29196"
         sodipodi:ry="90.913727"
         d="m 348.50261,184.64114 a 377.29196,90.913727 0 1 1 -754.58392,0 377.29196,90.913727 0 1 1 754.58392,0 z" />
    </clipPath>
    <filter
       inkscape:collect="always"
       id="filter4087">
      <feGaussianBlur
         inkscape:collect="always"
         stdDeviation="2.2734073"
         id="feGaussianBlur4089" />
    </filter>
    <linearGradient
       inkscape:collect="always"
       xlink:href="#linearGradient4107"
       id="linearGradient4113"
       x1="492.85715"
       y1="373.05246"
       x2="492.85715"
       y2="403.61993"
       gradientUnits="userSpaceOnUse" />
    <linearGradient
       inkscape:collect="always"
       xlink:href="#linearGradient4107"
       id="linearGradient4121"
       gradientUnits="userSpaceOnUse"
       x1="492.85715"
       y1="373.05246"
       x2="492.85715"
       y2="403.61993" />
    <clipPath
       clipPathUnits="userSpaceOnUse"
       id="clipPath4129">
      <rect
         style="fill:#ff6600;fill-opacity:1;fill-rule:nonzero;stroke:none"
         id="rect4131"
         width="612.14288"
         height="37.857143"
         x="101.42857"
         y="386.64789" />
    </clipPath>
    <filter
       inkscape:collect="always"
       id="filter4225"
       x="-0.049829689"
       width="1.0996594"
       y="-0.50850603"
       height="2.0170121">
      <feGaussianBlur
         inkscape:collect="always"
         stdDeviation="10.410592"
         id="feGaussianBlur4227" />
    </filter>
    <filter
       inkscape:collect="always"
       id="filter4229"
       x="-0.042682761"
       width="1.0853655"
       y="-0.16914184"
       height="1.3382837">
      <feGaussianBlur
         inkscape:collect="always"
         stdDeviation="10.410592"
         id="feGaussianBlur4231" />
    </filter>
  </defs>
  <sodipodi:namedview
     id="base"
     pagecolor="#ffffff"
     bordercolor="#666666"
     borderopacity="1.0"
     inkscape:pageopacity="0.0"
     inkscape:pageshadow="2"
     inkscape:zoom="1.4"
     inkscape:cx="371.76031"
     inkscape:cy="671.05617"
     inkscape:document-units="px"
     inkscape:current-layer="layer1"
     showgrid="false"
     inkscape:window-width="1680"
     inkscape:window-height="968"
     inkscape:window-x="-4"
     inkscape:window-y="-3"
     inkscape:window-maximized="1" />
  <metadata
     id="metadata7">
    <rdf:RDF>
      <cc:Work
         rdf:about="">
        <dc:format>image/svg+xml</dc:format>
        <dc:type
           rdf:resource="http://purl.org/dc/dcmitype/StillImage" />
        <dc:title></dc:title>
      </cc:Work>
    </rdf:RDF>
  </metadata>
  <g
     inkscape:label="Calque 1"
     inkscape:groupmode="layer"
     id="layer1">
    <g
       id="g4091"
       inkscape:export-filename="/home/ouardane/Images/Loisir/meta/meta-site/img/logo_round.png"
       inkscape:export-xdpi="81.708672"
       inkscape:export-ydpi="81.708672">
      <path
         d="m -368.70567,286.66656 a 45.456863,45.456863 0 1 1 -90.91373,0 45.456863,45.456863 0 1 1 90.91373,0 z"
         sodipodi:ry="45.456863"
         sodipodi:rx="45.456863"
         sodipodi:cy="286.66656"
         sodipodi:cx="-414.16254"
         id="path3301"
         style="fill:#000000;fill-opacity:1;fill-rule:nonzero;stroke:none;filter:url(#filter4087)"
         sodipodi:type="arc"
         transform="matrix(0.83972403,3.1338927,-3.1338927,0.83972403,1622.2117,1662.1538)" />
      <path
         transform="matrix(0.83972403,3.1338927,-3.1338927,0.83972403,1618.2117,1658.1538)"
         sodipodi:type="arc"
         style="fill:#550000;fill-opacity:1;fill-rule:nonzero;stroke:none"
         id="path3632"
         sodipodi:cx="-414.16254"
         sodipodi:cy="286.66656"
         sodipodi:rx="45.456863"
         sodipodi:ry="45.456863"
         d="m -368.70567,286.66656 a 45.456863,45.456863 0 1 1 -90.91373,0 45.456863,45.456863 0 1 1 90.91373,0 z" />
      <path
         inkscape:connector-curvature="0"
         sodipodi:nodetypes="cssscs"
         id="path2854"
         d="m 283.30041,517.43233 c 24.29793,-61.12314 129.04122,-56.20434 178.74686,-6.4987 49.70562,49.70562 49.70562,130.29436 -2e-5,180 -24.99587,24.99587 -99.46928,37.53851 -127.94183,16.66853 -18.57813,-13.61749 35.10611,-64.73735 37.94184,-106.66852 -30.92487,-27.94568 -126.17655,10.65558 -88.74685,-83.50131 z"
         style="fill:#ffcc00;fill-opacity:1;fill-rule:nonzero;stroke:none" />
      <path
         inkscape:connector-curvature="0"
         style="opacity:0.5;fill:#000000;fill-opacity:1;fill-rule:nonzero;stroke:none;filter:url(#filter3937)"
         d="m 400.03704,688.68625 c -15.72822,11.80315 -86.33011,-13.85688 -97.73716,-56.42858 -11.40705,-42.57168 13.85688,-86.3301 56.42858,-97.73715 18.43127,-4.93864 42.3144,-8.57506 55.2206,5.15556 18.98761,20.2005 -4.42565,24.58437 -11.62889,50.50302 -7.01622,25.24578 10.45271,88.94962 -2.28313,98.50715 z"
         id="path3163"
         sodipodi:nodetypes="csssss" />
      <path
         inkscape:connector-curvature="0"
         sodipodi:nodetypes="csssss"
         id="path2852"
         d="m 392.70156,678.01646 c -15.72822,11.80315 -86.33011,-13.85688 -97.73716,-56.42858 -11.40705,-42.57168 13.85688,-86.3301 56.42858,-97.73715 18.43127,-4.93864 42.3144,-8.57506 55.2206,5.15556 18.98761,20.2005 -4.42565,24.58437 -11.62889,50.50302 -7.01622,25.24578 10.45271,88.94962 -2.28313,98.50715 z"
         style="fill:#ff6600;fill-opacity:1;fill-rule:nonzero;stroke:none" />
      <path
         transform="matrix(0.25881905,0.96592583,-0.96592583,0.25881905,758.72485,929.23862)"
         sodipodi:type="arc"
         style="opacity:0.25;fill:#000000;fill-opacity:1;fill-rule:nonzero;stroke:none;filter:url(#filter3654)"
         id="path3648"
         sodipodi:cx="-414.16254"
         sodipodi:cy="286.66656"
         sodipodi:rx="45.456863"
         sodipodi:ry="45.456863"
         d="m -368.70567,286.66656 a 45.456863,45.456863 0 1 1 -90.91373,0 45.456863,45.456863 0 1 1 90.91373,0 z" />
      <path
         transform="matrix(0.25881905,0.96592583,-0.96592583,0.25881905,756.13907,926.78913)"
         sodipodi:type="arc"
         style="fill:#0066ff;fill-opacity:1;fill-rule:nonzero;stroke:none"
         id="path3668"
         sodipodi:cx="-414.16254"
         sodipodi:cy="286.66656"
         sodipodi:rx="45.456863"
         sodipodi:ry="45.456863"
         d="m -368.70567,286.66656 a 45.456863,45.456863 0 1 1 -90.91373,0 45.456863,45.456863 0 1 1 90.91373,0 z" />
      <path
         inkscape:connector-curvature="0"
         sodipodi:nodetypes="ccsc"
         id="path2848"
         d="m 383.81238,644.84157 c -59.63692,8.42945 4.70366,-56.77693 -23.5302,-87.81592 24.24969,-6.49769 49.17537,7.89316 55.67305,32.14285 6.49769,24.2497 -7.89315,49.17538 -32.14285,55.67307 z"
         style="opacity:0.25;fill:#ffffff;fill-opacity:1;fill-rule:nonzero;stroke:none" />
    </g>
    <text
       xml:space="preserve"
       style="font-size:70px;font-style:normal;font-variant:normal;font-weight:normal;font-stretch:normal;text-align:center;line-height:100%;writing-mode:lr-tb;text-anchor:middle;fill:#00000f;fill-opacity:1;fill-rule:nonzero;stroke:none;font-family:'Arista 2.0';-inkscape-font-specification:'Arista 2.0,'"
       x="372.30426"
       y="403.79074"
       id="text2993"
       sodipodi:linespacing="100%"
       inkscape:export-filename="/home/ouardane/Images/Loisir/meta/meta-site/img/index_txt.png"
       inkscape:export-xdpi="90"
       inkscape:export-ydpi="90"><tspan
         sodipodi:role="line"
         id="tspan2995"
         x="372.30426"
         y="403.79074">dans l'univers de</tspan></text>
    <g
       id="g3265"
       transform="translate(-33.51526,0)"
       inkscape:export-filename="/home/ouardane/Images/Loisir/meta/meta-site/img/index_txt.png"
       inkscape:export-xdpi="90"
       inkscape:export-ydpi="90">
      <path
         d="m 185.9375,158.5625 c -9.98508,1.5e-4 -19.46358,1.94958 -28.375,5.84375 -0.009,0.004 -0.0223,-0.004 -0.0313,0 -8.86778,3.74501 -16.67182,8.98442 -23.34375,15.65625 a 3.0586023,3.0586023 0 0 0 -0.0313,0.0313 c -6.53035,6.66938 -11.75257,14.46131 -15.625,23.3125 -3.76567,8.78663 -5.65626,18.23521 -5.65625,28.21875 -1e-5,10.11175 1.89569,19.64866 5.65625,28.5625 a 3.0586023,3.0586023 0 0 0 0,0.0313 c 3.87243,8.85134 9.09463,16.64324 15.625,23.3125 a 3.0586023,3.0586023 0 0 0 0.0313,0.0313 c 6.66888,6.66892 14.47672,11.9957 23.34375,15.875 a 3.0586023,3.0586023 0 0 0 0.0313,0 c 8.9154,3.76121 18.39796,5.625 28.375,5.625 l 70,0 A 3.0586023,3.0586023 0 0 0 259,302 l 0,-45.375 a 3.0586023,3.0586023 0 0 0 -3.0625,-3.0625 c -2.78735,4e-5 -5.08483,-0.84624 -7.40625,-2.71875 -0.006,-0.005 -0.0256,0.005 -0.0313,0 -1.22276,-1.06255 -1.98691,-2.18868 -2.46875,-3.375 l 9.90625,0 a 3.0586023,3.0586023 0 0 0 3.0625,-3 l 0.21875,-12.78125 a 3.0586023,3.0586023 0 0 0 0,-0.0625 c -1.6e-4,-9.97085 -1.95337,-19.40926 -5.84375,-28.1875 -0.009,-0.0216 -0.0221,-0.0409 -0.0313,-0.0625 -3.738,-8.8378 -8.9466,-16.62578 -15.59375,-23.28125 -0.0103,-0.0105 -0.0209,-0.0207 -0.0313,-0.0313 -6.54092,-6.67133 -14.29844,-11.91534 -23.15625,-15.65625 -0.009,-0.004 -0.0223,0.004 -0.0313,0 -8.91859,-3.89718 -18.48099,-5.8436 -28.59375,-5.84375 z m 191.71875,26.375 A 3.0586023,3.0586023 0 0 0 374.59375,188 l 0,64.625 c 0,7.4514 1.41299,14.47491 4.25,21 2.81086,6.46505 6.66177,12.13055 11.46875,16.9375 4.80694,4.80698 10.47246,8.65788 16.9375,11.46875 6.52856,2.83853 13.57984,4.25 21.03125,4.25 a 3.0586023,3.0586023 0 0 0 3.0625,-3.0625 L 431.125,247.8125 a 3.0586023,3.0586023 0 0 0 -2.53125,-3.03125 c 1.38097,-0.54024 2.64948,-1.29663 3.75,-2.3125 a 3.0586023,3.0586023 0 0 0 0.0313,0 c 2.42122,-2.24826 3.74992,-5.38684 3.75,-8.65625 -8e-5,-3.19373 -1.32064,-6.22754 -3.6875,-8.34375 -0.0104,-0.0104 -0.0208,-0.0209 -0.0313,-0.0313 -0.045,-0.0399 -0.0793,-0.0858 -0.125,-0.125 l -0.0313,0.0313 c -1.48279,-1.42712 -3.33125,-2.2925 -5.3125,-2.8125 l 0,-34.53125 a 3.0586023,3.0586023 0 0 0 -3.0625,-3.0625 l -46.21875,0 z m 115.84375,10 c -7.45138,1.1e-4 -14.50271,1.4116 -21.03125,4.25 -6.46502,2.81096 -12.13057,6.66189 -16.9375,11.46875 -4.81423,4.8143 -8.63291,10.54264 -11.4375,17.125 -0.004,0.009 0.004,0.0226 0,0.0313 -2.82806,6.51491 -4.25,13.49726 -4.25,20.8125 l 0,53.1875 a 3.0586023,3.0586023 0 0 0 3.0625,3.0625 l 46.1875,0 a 3.0586023,3.0586023 0 0 0 3.0625,-3.0625 l 0,-45.34375 1.15625,0 a 3.0586023,3.0586023 0 0 0 3.0625,-3.0625 L 496.5625,198 A 3.0586023,3.0586023 0 0 0 493.5,194.9375 z M 317.125,196.75 c -7.45138,1.1e-4 -14.47494,1.4131 -21,4.25 -6.46938,2.81286 -12.21898,6.71905 -17.15625,11.65625 -4.82054,4.82062 -8.63185,10.56301 -11.4375,17.15625 a 3.0586023,3.0586023 0 0 0 0,0.0313 c -2.68833,6.50864 -4.06251,13.47181 -4.0625,20.78125 l 0.21875,51.1875 a 3.0586023,3.0586023 0 0 0 3.0625,3.0625 l 33.59375,0 a 3.0586023,3.0586023 0 0 0 3.0625,-3.0625 c -3e-5,-1.88442 0.4622,-2.99348 1.5,-4.03125 1.22729,-1.22732 2.40297,-1.71874 4.21875,-1.71875 1.81565,10e-6 2.91248,0.48075 3.96875,1.625 a 3.0586023,3.0586023 0 0 0 0.1875,0.1875 c 1.14531,1.05724 1.59371,2.0966 1.59375,3.9375 a 3.0586023,3.0586023 0 0 0 3.0625,3.0625 l 49.1875,0 a 3.0586023,3.0586023 0 0 0 3.0625,-3.03125 l 0.625,-51.1875 a 3.0586023,3.0586023 0 0 0 0,-0.0313 c -1.2e-4,-7.31521 -1.42207,-14.29761 -4.25,-20.8125 -0.004,-0.009 0.004,-0.0226 0,-0.0313 -2.80208,-6.57596 -6.64296,-12.29086 -11.4375,-17.09375 -0.0103,-0.0106 -0.021,-0.0207 -0.0313,-0.0313 -4.80664,-4.93926 -10.53525,-8.84813 -17.125,-11.65625 -0.009,-0.004 -0.0222,0.004 -0.0313,0 -6.51489,-2.82795 -13.49729,-4.24989 -20.8125,-4.25 z m 236.9375,0.8125 c -7.45138,1.1e-4 -14.50271,1.41159 -21.03125,4.25 -6.46501,2.81096 -12.13332,6.71917 -16.9375,11.65625 -0.0103,0.0106 -0.0209,0.0206 -0.0313,0.0313 -4.79237,4.80037 -8.63272,10.4553 -11.4375,16.90625 -2.83438,6.51913 -4.25,13.48713 -4.25,20.8125 0,7.4514 1.41299,14.47491 4.25,21 2.80672,6.45553 6.64549,12.19209 11.4375,17.125 a 3.0586023,3.0586023 0 0 0 0.0313,0.0313 c 4.81191,4.81195 10.48047,8.63011 16.9375,11.4375 6.52856,2.83853 13.57984,4.25 21.03125,4.25 l 50.375,0 A 3.0586023,3.0586023 0 0 0 607.5,302 l 0,-32.78125 a 3.0586023,3.0586023 0 0 0 -3.0625,-3.0625 c -1.84474,2e-5 -3.29691,-0.4958 -4.78125,-1.65625 -0.007,-0.006 0.007,-0.0249 0,-0.0313 -0.38381,-0.33447 -0.55473,-0.66935 -0.8125,-1 l 5.59375,0 a 3.0586023,3.0586023 0 0 0 3.0625,-3 l 0.21875,-9.1875 a 3.0586023,3.0586023 0 0 0 0,-0.0625 c -1.2e-4,-7.32534 -1.41575,-14.29339 -4.25,-20.8125 -2.80489,-6.45092 -6.64525,-12.10589 -11.4375,-16.90625 -0.0103,-0.0106 -0.021,-0.0207 -0.0313,-0.0313 -4.80664,-4.93928 -10.53526,-8.84813 -17.125,-11.65625 -0.009,-0.004 -0.0222,0.004 -0.0313,0 -6.51135,-2.82644 -13.46604,-4.24989 -20.78125,-4.25 z m 60.90625,0 a 3.0586023,3.0586023 0 0 0 -3.0625,3.0625 l 0,0.34375 0,0.0313 -0.1875,20.375 a 3.0586023,3.0586023 0 0 0 3.0625,3.09375 c 1.8409,6e-5 2.88024,0.44845 3.9375,1.59375 a 3.0586023,3.0586023 0 0 0 0.1875,0.1875 c 1.13082,1.04389 1.59374,2.12798 1.59375,3.96875 -10e-6,1.84095 -0.48619,3.04872 -1.6875,4.25 -1.02371,1.02374 -2.12169,1.4688 -4.03125,1.46875 a 3.0586023,3.0586023 0 0 0 -3.0625,3.125 l 0.1875,12.15625 c 0,0.0211 -2e-5,0.0414 0,0.0625 0.008,7.42788 1.42103,14.4309 4.25,20.9375 2.80672,6.45553 6.64549,12.19209 11.4375,17.125 a 3.0586023,3.0586023 0 0 0 0.0313,0.0313 c 4.81191,4.81195 10.48047,8.63011 16.9375,11.4375 6.52508,2.83701 13.54859,4.25 21,4.25 a 3.0586023,3.0586023 0 0 0 0.0625,0 l 29.625,-0.59375 a 3.0586023,3.0586023 0 0 0 3,-3.0625 l 0,-24.1875 a 3.0586023,3.0586023 0 0 0 -3.0625,-3.0625 c -1.82667,10e-6 -3.06268,-0.50395 -4.21875,-1.53125 -1.02736,-1.15613 -1.53131,-2.3922 -1.53125,-4.21875 -6e-5,-1.88436 0.46214,-2.99342 1.5,-4.03125 1.20125,-1.20128 2.40901,-1.68747 4.25,-1.6875 a 3.0586023,3.0586023 0 0 0 3.0625,-3.0625 l 0,-8.8125 C 698.2499,243.48715 696.83428,236.51912 694,230 c -2.81095,-6.46491 -6.71918,-12.13323 -11.65625,-16.9375 -0.0104,-0.0104 -0.0208,-0.0208 -0.0313,-0.0313 -4.79761,-4.78914 -10.4667,-8.51807 -16.90625,-11.1875 l 0,-0.0313 c -6.52258,-2.83578 -13.5184,-4.24989 -20.84375,-4.25 l -29.59375,0 z m -381.03125,18.125 c 2.81471,7e-5 4.76905,0.76921 6.46875,2.46875 a 3.0586023,3.0586023 0 0 0 0.0625,0.0625 c 1.82403,1.72285 2.62489,3.64169 2.625,6.40625 -1.1e-4,2.76475 -0.80449,4.74194 -2.6875,6.625 -1.70964,1.70959 -3.6725,2.50006 -6.46875,2.5 -2.76272,6e-5 -4.771,-0.77517 -6.625,-2.5 -1.72489,-1.85406 -2.50009,-3.86236 -2.5,-6.625 -9e-5,-2.76076 0.77242,-4.71212 2.4375,-6.40625 0.0113,-0.0106 0.02,-0.0207 0.0313,-0.0313 0.0108,-0.0109 0.0204,-0.0204 0.0313,-0.0313 1.84399,-1.71493 3.84404,-2.46868 6.625,-2.46875 z m 354.71875,24.78125 c 1.84077,4e-5 2.88014,0.44838 3.9375,1.59375 a 3.0586023,3.0586023 0 0 0 0.1875,0.1875 c 1.13074,1.04386 1.59368,2.1279 1.59375,3.96875 -7e-5,1.841 -0.48623,3.04871 -1.6875,4.25 -1.02382,1.02379 -2.1218,1.46879 -4.03125,1.46875 -1.85052,4e-5 -3.07681,-0.48655 -4.21875,-1.5 -1.02735,-1.1561 -1.53131,-2.39216 -1.53125,-4.21875 -6e-5,-1.88432 0.47621,-3.03872 1.5,-4.0625 1.20125,-1.20127 2.40899,-1.68746 4.25,-1.6875 z"
         inkscape:href="#text4366"
         id="path4378"
         style="font-size:89.35980225px;font-style:normal;font-variant:normal;font-weight:bold;font-stretch:normal;text-align:center;line-height:100%;writing-mode:lr-tb;text-anchor:middle;fill:#000000;fill-opacity:1;fill-rule:nonzero;stroke:none;font-family:Impact;-inkscape-font-specification:Impact Bold"
         xlink:href="#text4366"
         inkscape:original="M 185.9375 161.625 C 176.33743 161.62514 167.28328 163.48556 158.75 167.21875 C 150.21663 170.81888 142.74372 175.81888 136.34375 182.21875 C 130.07706 188.61886 125.07707 196.09177 121.34375 204.625 C 117.74374 213.02509 115.93749 222.02508 115.9375 231.625 C 115.93749 241.35839 117.74374 250.46672 121.34375 259 C 125.07707 267.53337 130.07706 275.00628 136.34375 281.40625 C 142.74372 287.80626 150.21663 292.89168 158.75 296.625 C 167.28328 300.225 176.33743 302 185.9375 302 L 255.9375 302 L 255.9375 256.625 C 252.47069 256.62505 249.36236 255.48546 246.5625 253.21875 C 243.76237 250.8188 242.34362 247.87297 242.34375 244.40625 L 255.9375 244.40625 L 256.15625 231.625 C 256.1561 222.02508 254.29569 213.02509 250.5625 204.625 C 246.96236 196.09177 241.96237 188.61886 235.5625 182.21875 C 229.29572 175.81888 221.87697 170.81888 213.34375 167.21875 C 204.81032 163.48556 195.67075 161.62514 185.9375 161.625 z M 377.65625 188 L 377.65625 252.625 C 377.65625 259.69171 378.98958 266.27295 381.65625 272.40625 C 384.3229 278.53961 387.9354 283.87293 392.46875 288.40625 C 397.00206 292.93959 402.33539 296.55209 408.46875 299.21875 C 414.60204 301.88542 421.21453 303.21875 428.28125 303.21875 L 428.0625 247.8125 L 423.875 247.8125 L 423.875 242.625 C 426.40828 242.62506 428.54786 241.81881 430.28125 240.21875 C 432.14786 238.48548 433.06244 236.3459 433.0625 233.8125 C 433.06244 231.27924 432.14786 229.22507 430.28125 227.625 C 428.54786 225.89174 426.40828 225.00008 423.875 225 L 423.875 188 L 377.65625 188 z M 493.5 198 C 486.43328 198.0001 479.82079 199.33344 473.6875 202 C 467.55414 204.66676 462.22081 208.27926 457.6875 212.8125 C 453.15415 217.34592 449.5729 222.73341 446.90625 229 C 444.23958 235.1334 442.90625 241.69173 442.90625 248.625 L 442.90625 301.8125 L 489.09375 301.8125 L 489.09375 253.40625 L 493.3125 253.40625 L 493.5 198 z M 317.125 199.8125 C 310.05828 199.8126 303.47704 201.14593 297.34375 203.8125 C 291.21039 206.47926 285.79164 210.14593 281.125 214.8125 C 276.59165 219.34592 273.0104 224.73341 270.34375 231 C 267.81041 237.1334 266.53124 243.69173 266.53125 250.625 L 266.75 301.8125 L 300.34375 301.8125 C 300.34371 299.27917 301.14996 297.225 302.75 295.625 C 304.48329 293.89167 306.59162 293.00001 309.125 293 C 311.65828 293.00001 313.7437 293.89167 315.34375 295.625 C 317.07703 297.225 317.93744 299.27917 317.9375 301.8125 L 367.125 301.8125 L 367.75 250.625 C 367.74989 243.69173 366.41656 237.1334 363.75 231 C 361.08323 224.73341 357.47074 219.34592 352.9375 214.8125 C 348.40408 210.14593 343.01659 206.47926 336.75 203.8125 C 330.6166 201.14593 324.05827 199.8126 317.125 199.8125 z M 554.0625 200.625 C 546.99578 200.6251 540.38329 201.95843 534.25 204.625 C 528.11664 207.29176 522.78331 210.95842 518.25 215.625 C 513.71665 220.15842 510.10415 225.49174 507.4375 231.625 C 504.77083 237.7584 503.4375 244.28547 503.4375 251.21875 C 503.4375 258.28546 504.77083 264.8667 507.4375 271 C 510.10415 277.13336 513.71665 282.5521 518.25 287.21875 C 522.78331 291.75209 528.11664 295.33334 534.25 298 C 540.38329 300.66667 546.99578 302 554.0625 302 L 604.4375 302 L 604.4375 269.21875 C 601.90406 269.21878 599.65615 268.41253 597.65625 266.8125 C 595.65615 265.0792 594.65615 262.93962 594.65625 260.40625 L 604.4375 260.40625 L 604.65625 251.21875 C 604.65614 244.28547 603.32281 237.7584 600.65625 231.625 C 597.98948 225.49174 594.37699 220.15842 589.84375 215.625 C 585.31033 210.95842 579.92284 207.29176 573.65625 204.625 C 567.52285 201.95843 560.99577 200.6251 554.0625 200.625 z M 614.96875 200.625 L 614.96875 201 L 614.78125 221.40625 C 617.31458 221.40633 619.36874 222.26675 620.96875 224 C 622.70207 225.60008 623.56249 227.68549 623.5625 230.21875 C 623.56249 232.75215 622.70207 234.89173 620.96875 236.625 C 619.36874 238.22506 617.31458 239.00006 614.78125 239 L 614.96875 251.21875 C 614.96874 258.28546 616.30208 264.8667 618.96875 271 C 621.6354 277.13336 625.2479 282.5521 629.78125 287.21875 C 634.31456 291.75209 639.64789 295.33334 645.78125 298 C 651.91454 300.66667 658.49578 302 665.5625 302 L 695.1875 301.40625 L 695.1875 277.21875 C 692.65408 277.21877 690.5145 276.41253 688.78125 274.8125 C 687.18117 273.0792 686.37492 270.93961 686.375 268.40625 C 686.37492 265.87295 687.18117 263.81879 688.78125 262.21875 C 690.5145 260.48546 692.65408 259.62504 695.1875 259.625 L 695.1875 250.8125 C 695.18741 243.87922 693.85408 237.35215 691.1875 231.21875 C 688.52075 225.08549 684.85409 219.75217 680.1875 215.21875 C 675.6541 210.68551 670.32077 207.15843 664.1875 204.625 C 658.05412 201.95843 651.49579 200.6251 644.5625 200.625 L 614.96875 200.625 z M 233.9375 212.625 C 237.40404 212.62509 240.2957 213.73342 242.5625 216 C 244.96237 218.26675 246.15611 221.15841 246.15625 224.625 C 246.15611 228.09174 244.96237 231.00632 242.5625 233.40625 C 240.2957 235.67298 237.40404 236.81257 233.9375 236.8125 C 230.47071 236.81257 227.55613 235.67298 225.15625 233.40625 C 222.88947 231.00632 221.74989 228.09174 221.75 224.625 C 221.74989 221.15841 222.88947 218.26675 225.15625 216 C 227.55613 213.73342 230.47071 212.62509 233.9375 212.625 z M 588.65625 237.40625 C 591.18949 237.40631 593.24366 238.26673 594.84375 240 C 596.57699 241.60006 597.4374 243.68548 597.4375 246.21875 C 597.4374 248.75214 596.57699 250.89172 594.84375 252.625 C 593.24366 254.22505 591.18949 255.00005 588.65625 255 C 586.12283 255.00005 583.98325 254.22505 582.25 252.625 C 580.64992 250.89172 579.84367 248.75214 579.84375 246.21875 C 579.84367 243.68548 580.64992 241.60006 582.25 240 C 583.98325 238.26673 586.12283 237.40631 588.65625 237.40625 z "
         inkscape:radius="3.0582964"
         sodipodi:type="inkscape:offset" />
      <text
         sodipodi:linespacing="100%"
         id="text4366"
         y="302.01547"
         x="405.48068"
         style="font-size:197.83482361px;font-style:normal;font-variant:normal;font-weight:bold;font-stretch:normal;text-align:center;line-height:100%;writing-mode:lr-tb;text-anchor:middle;fill:#000000;fill-opacity:1;fill-rule:nonzero;stroke:none;font-family:Impact;-inkscape-font-specification:Impact Bold"
         xml:space="preserve"><tspan
           style="font-size:200px;font-style:normal;font-variant:normal;font-weight:normal;font-stretch:normal;text-align:center;line-height:100%;writing-mode:lr-tb;text-anchor:middle;fill:#000000;font-family:Lein Bold;-inkscape-font-specification:'Lein Bold,'"
           y="302.01547"
           x="405.48068"
           id="tspan4368"
           sodipodi:role="line"><tspan
             id="tspan3249"
             style="fill:#550000">E</tspan><tspan
             id="tspan3247"
             style="fill:#ffcc00">nt</tspan><tspan
             id="tspan3245"
             style="fill:#ff6600">re</tspan><tspan
             id="tspan3243"
             style="fill:#0066ff">z</tspan></tspan></text>
      <path
         clip-path="url(#clipPath3261)"
         d="m 185.9375,161.625 c -9.60007,1.4e-4 -18.65422,1.86056 -27.1875,5.59375 -8.53337,3.60013 -16.00628,8.60013 -22.40625,15 -6.26669,6.40011 -11.26668,13.87302 -15,22.40625 -3.60001,8.40009 -5.40626,17.40008 -5.40625,27 -1e-5,9.73339 1.80624,18.84172 5.40625,27.375 3.73332,8.53337 8.73331,16.00628 15,22.40625 6.39997,6.40001 13.87288,11.48543 22.40625,15.21875 8.53328,3.6 17.58743,5.375 27.1875,5.375 l 70,0 0,-45.375 c -3.46681,5e-5 -6.57514,-1.13954 -9.375,-3.40625 -2.80013,-2.39995 -4.21888,-5.34578 -4.21875,-8.8125 l 13.59375,0 0.21875,-12.78125 c -1.5e-4,-9.59992 -1.86056,-18.59991 -5.59375,-27 -3.60014,-8.53323 -8.60013,-16.00614 -15,-22.40625 -6.26678,-6.39987 -13.68553,-11.39987 -22.21875,-15 -8.53343,-3.73319 -17.673,-5.59361 -27.40625,-5.59375 z M 377.65625,188 l 0,64.625 c 0,7.06671 1.33333,13.64795 4,19.78125 2.66665,6.13336 6.27915,11.46668 10.8125,16 4.53331,4.53334 9.86664,8.14584 16,10.8125 6.13329,2.66667 12.74578,4 19.8125,4 l -0.21875,-55.40625 -4.1875,0 0,-5.1875 c 2.53328,6e-5 4.67286,-0.80619 6.40625,-2.40625 1.86661,-1.73327 2.78119,-3.87285 2.78125,-6.40625 -6e-5,-2.53326 -0.91464,-4.58743 -2.78125,-6.1875 -1.73339,-1.73326 -3.87297,-2.62492 -6.40625,-2.625 l 0,-37 -46.21875,0 z M 493.5,198 c -7.06672,1e-4 -13.67921,1.33344 -19.8125,4 -6.13336,2.66676 -11.46669,6.27926 -16,10.8125 -4.53335,4.53342 -8.1146,9.92091 -10.78125,16.1875 -2.66667,6.1334 -4,12.69173 -4,19.625 l 0,53.1875 46.1875,0 0,-48.40625 4.21875,0 L 493.5,198 z m -176.375,1.8125 c -7.06672,1e-4 -13.64796,1.33343 -19.78125,4 -6.13336,2.66676 -11.55211,6.33343 -16.21875,11 -4.53335,4.53342 -8.1146,9.92091 -10.78125,16.1875 -2.53334,6.1334 -3.81251,12.69173 -3.8125,19.625 l 0.21875,51.1875 33.59375,0 c -4e-5,-2.53333 0.80621,-4.5875 2.40625,-6.1875 1.73329,-1.73333 3.84162,-2.62499 6.375,-2.625 2.53328,10e-6 4.6187,0.89167 6.21875,2.625 1.73328,1.6 2.59369,3.65417 2.59375,6.1875 l 49.1875,0 0.625,-51.1875 c -1.1e-4,-6.93327 -1.33344,-13.4916 -4,-19.625 -2.66677,-6.26659 -6.27926,-11.65408 -10.8125,-16.1875 -4.53342,-4.66657 -9.92091,-8.33324 -16.1875,-11 -6.1334,-2.66657 -12.69173,-3.9999 -19.625,-4 z m 236.9375,0.8125 c -7.06672,1e-4 -13.67921,1.33343 -19.8125,4 -6.13336,2.66676 -11.46669,6.33342 -16,11 -4.53335,4.53342 -8.14585,9.86674 -10.8125,16 -2.66667,6.1334 -4,12.66047 -4,19.59375 0,7.06671 1.33333,13.64795 4,19.78125 2.66665,6.13336 6.27915,11.5521 10.8125,16.21875 4.53331,4.53334 9.86664,8.11459 16,10.78125 6.13329,2.66667 12.74578,4 19.8125,4 l 50.375,0 0,-32.78125 c -2.53344,3e-5 -4.78135,-0.80622 -6.78125,-2.40625 -2.0001,-1.7333 -3.0001,-3.87288 -3,-6.40625 l 9.78125,0 0.21875,-9.1875 c -1.1e-4,-6.93328 -1.33344,-13.46035 -4,-19.59375 -2.66677,-6.13326 -6.27926,-11.46658 -10.8125,-16 -4.53342,-4.66658 -9.92091,-8.33324 -16.1875,-11 -6.1334,-2.66657 -12.66048,-3.9999 -19.59375,-4 z m 60.90625,0 0,0.375 -0.1875,20.40625 c 2.53333,8e-5 4.58749,0.8605 6.1875,2.59375 1.73332,1.60008 2.59374,3.68549 2.59375,6.21875 -10e-6,2.5334 -0.86043,4.67298 -2.59375,6.40625 -1.60001,1.60006 -3.65417,2.37506 -6.1875,2.375 l 0.1875,12.21875 c -10e-6,7.06671 1.33333,13.64795 4,19.78125 2.66665,6.13336 6.27915,11.5521 10.8125,16.21875 4.53331,4.53334 9.86664,8.11459 16,10.78125 6.13329,2.66667 12.71453,4 19.78125,4 l 29.625,-0.59375 0,-24.1875 c -2.53342,2e-5 -4.673,-0.80622 -6.40625,-2.40625 -1.60008,-1.7333 -2.40633,-3.87289 -2.40625,-6.40625 -8e-5,-2.5333 0.80617,-4.58746 2.40625,-6.1875 1.73325,-1.73329 3.87283,-2.59371 6.40625,-2.59375 l 0,-8.8125 c -9e-5,-6.93328 -1.33342,-13.46035 -4,-19.59375 -2.66675,-6.13326 -6.33341,-11.46658 -11,-16 -4.5334,-4.53324 -9.86673,-8.06032 -16,-10.59375 -6.13338,-2.66657 -12.69171,-3.9999 -19.625,-4 l -29.59375,0 z m -381.03125,12 c 3.46654,9e-5 6.3582,1.10842 8.625,3.375 2.39987,2.26675 3.59361,5.15841 3.59375,8.625 -1.4e-4,3.46674 -1.19388,6.38132 -3.59375,8.78125 -2.2668,2.26673 -5.15846,3.40632 -8.625,3.40625 -3.46679,7e-5 -6.38137,-1.13952 -8.78125,-3.40625 -2.26678,-2.39993 -3.40636,-5.31451 -3.40625,-8.78125 -1.1e-4,-3.46659 1.13947,-6.35825 3.40625,-8.625 2.39988,-2.26658 5.31446,-3.37491 8.78125,-3.375 z m 354.71875,24.78125 c 2.53324,6e-5 4.58741,0.86048 6.1875,2.59375 1.73324,1.60006 2.59365,3.68548 2.59375,6.21875 -10e-5,2.53339 -0.86051,4.67297 -2.59375,6.40625 -1.60009,1.60005 -3.65426,2.37505 -6.1875,2.375 -2.53342,5e-5 -4.673,-0.77495 -6.40625,-2.375 -1.60008,-1.73328 -2.40633,-3.87286 -2.40625,-6.40625 -8e-5,-2.53327 0.80617,-4.61869 2.40625,-6.21875 1.73325,-1.73327 3.87283,-2.59369 6.40625,-2.59375 z"
         inkscape:href="#text4366"
         id="path2845"
         style="font-size:197.83482361px;font-style:normal;font-variant:normal;font-weight:bold;font-stretch:normal;text-align:center;line-height:100%;writing-mode:lr-tb;text-anchor:middle;opacity:0.25;fill:#ffffff;fill-opacity:1;fill-rule:nonzero;stroke:none;font-family:Impact;-inkscape-font-specification:Impact Bold"
         xlink:href="#text4366"
         inkscape:original="M 185.9375 161.625 C 176.33743 161.62514 167.28328 163.48556 158.75 167.21875 C 150.21663 170.81888 142.74372 175.81888 136.34375 182.21875 C 130.07706 188.61886 125.07707 196.09177 121.34375 204.625 C 117.74374 213.02509 115.93749 222.02508 115.9375 231.625 C 115.93749 241.35839 117.74374 250.46672 121.34375 259 C 125.07707 267.53337 130.07706 275.00628 136.34375 281.40625 C 142.74372 287.80626 150.21663 292.89168 158.75 296.625 C 167.28328 300.225 176.33743 302 185.9375 302 L 255.9375 302 L 255.9375 256.625 C 252.47069 256.62505 249.36236 255.48546 246.5625 253.21875 C 243.76237 250.8188 242.34362 247.87297 242.34375 244.40625 L 255.9375 244.40625 L 256.15625 231.625 C 256.1561 222.02508 254.29569 213.02509 250.5625 204.625 C 246.96236 196.09177 241.96237 188.61886 235.5625 182.21875 C 229.29572 175.81888 221.87697 170.81888 213.34375 167.21875 C 204.81032 163.48556 195.67075 161.62514 185.9375 161.625 z M 377.65625 188 L 377.65625 252.625 C 377.65625 259.69171 378.98958 266.27295 381.65625 272.40625 C 384.3229 278.53961 387.9354 283.87293 392.46875 288.40625 C 397.00206 292.93959 402.33539 296.55209 408.46875 299.21875 C 414.60204 301.88542 421.21453 303.21875 428.28125 303.21875 L 428.0625 247.8125 L 423.875 247.8125 L 423.875 242.625 C 426.40828 242.62506 428.54786 241.81881 430.28125 240.21875 C 432.14786 238.48548 433.06244 236.3459 433.0625 233.8125 C 433.06244 231.27924 432.14786 229.22507 430.28125 227.625 C 428.54786 225.89174 426.40828 225.00008 423.875 225 L 423.875 188 L 377.65625 188 z M 493.5 198 C 486.43328 198.0001 479.82079 199.33344 473.6875 202 C 467.55414 204.66676 462.22081 208.27926 457.6875 212.8125 C 453.15415 217.34592 449.5729 222.73341 446.90625 229 C 444.23958 235.1334 442.90625 241.69173 442.90625 248.625 L 442.90625 301.8125 L 489.09375 301.8125 L 489.09375 253.40625 L 493.3125 253.40625 L 493.5 198 z M 317.125 199.8125 C 310.05828 199.8126 303.47704 201.14593 297.34375 203.8125 C 291.21039 206.47926 285.79164 210.14593 281.125 214.8125 C 276.59165 219.34592 273.0104 224.73341 270.34375 231 C 267.81041 237.1334 266.53124 243.69173 266.53125 250.625 L 266.75 301.8125 L 300.34375 301.8125 C 300.34371 299.27917 301.14996 297.225 302.75 295.625 C 304.48329 293.89167 306.59162 293.00001 309.125 293 C 311.65828 293.00001 313.7437 293.89167 315.34375 295.625 C 317.07703 297.225 317.93744 299.27917 317.9375 301.8125 L 367.125 301.8125 L 367.75 250.625 C 367.74989 243.69173 366.41656 237.1334 363.75 231 C 361.08323 224.73341 357.47074 219.34592 352.9375 214.8125 C 348.40408 210.14593 343.01659 206.47926 336.75 203.8125 C 330.6166 201.14593 324.05827 199.8126 317.125 199.8125 z M 554.0625 200.625 C 546.99578 200.6251 540.38329 201.95843 534.25 204.625 C 528.11664 207.29176 522.78331 210.95842 518.25 215.625 C 513.71665 220.15842 510.10415 225.49174 507.4375 231.625 C 504.77083 237.7584 503.4375 244.28547 503.4375 251.21875 C 503.4375 258.28546 504.77083 264.8667 507.4375 271 C 510.10415 277.13336 513.71665 282.5521 518.25 287.21875 C 522.78331 291.75209 528.11664 295.33334 534.25 298 C 540.38329 300.66667 546.99578 302 554.0625 302 L 604.4375 302 L 604.4375 269.21875 C 601.90406 269.21878 599.65615 268.41253 597.65625 266.8125 C 595.65615 265.0792 594.65615 262.93962 594.65625 260.40625 L 604.4375 260.40625 L 604.65625 251.21875 C 604.65614 244.28547 603.32281 237.7584 600.65625 231.625 C 597.98948 225.49174 594.37699 220.15842 589.84375 215.625 C 585.31033 210.95842 579.92284 207.29176 573.65625 204.625 C 567.52285 201.95843 560.99577 200.6251 554.0625 200.625 z M 614.96875 200.625 L 614.96875 201 L 614.78125 221.40625 C 617.31458 221.40633 619.36874 222.26675 620.96875 224 C 622.70207 225.60008 623.56249 227.68549 623.5625 230.21875 C 623.56249 232.75215 622.70207 234.89173 620.96875 236.625 C 619.36874 238.22506 617.31458 239.00006 614.78125 239 L 614.96875 251.21875 C 614.96874 258.28546 616.30208 264.8667 618.96875 271 C 621.6354 277.13336 625.2479 282.5521 629.78125 287.21875 C 634.31456 291.75209 639.64789 295.33334 645.78125 298 C 651.91454 300.66667 658.49578 302 665.5625 302 L 695.1875 301.40625 L 695.1875 277.21875 C 692.65408 277.21877 690.5145 276.41253 688.78125 274.8125 C 687.18117 273.0792 686.37492 270.93961 686.375 268.40625 C 686.37492 265.87295 687.18117 263.81879 688.78125 262.21875 C 690.5145 260.48546 692.65408 259.62504 695.1875 259.625 L 695.1875 250.8125 C 695.18741 243.87922 693.85408 237.35215 691.1875 231.21875 C 688.52075 225.08549 684.85409 219.75217 680.1875 215.21875 C 675.6541 210.68551 670.32077 207.15843 664.1875 204.625 C 658.05412 201.95843 651.49579 200.6251 644.5625 200.625 L 614.96875 200.625 z M 233.9375 212.625 C 237.40404 212.62509 240.2957 213.73342 242.5625 216 C 244.96237 218.26675 246.15611 221.15841 246.15625 224.625 C 246.15611 228.09174 244.96237 231.00632 242.5625 233.40625 C 240.2957 235.67298 237.40404 236.81257 233.9375 236.8125 C 230.47071 236.81257 227.55613 235.67298 225.15625 233.40625 C 222.88947 231.00632 221.74989 228.09174 221.75 224.625 C 221.74989 221.15841 222.88947 218.26675 225.15625 216 C 227.55613 213.73342 230.47071 212.62509 233.9375 212.625 z M 588.65625 237.40625 C 591.18949 237.40631 593.24366 238.26673 594.84375 240 C 596.57699 241.60006 597.4374 243.68548 597.4375 246.21875 C 597.4374 248.75214 596.57699 250.89172 594.84375 252.625 C 593.24366 254.22505 591.18949 255.00005 588.65625 255 C 586.12283 255.00005 583.98325 254.22505 582.25 252.625 C 580.64992 250.89172 579.84367 248.75214 579.84375 246.21875 C 579.84367 243.68548 580.64992 241.60006 582.25 240 C 583.98325 238.26673 586.12283 237.40631 588.65625 237.40625 z "
         inkscape:radius="0"
         sodipodi:type="inkscape:offset" />
    </g>
  </g>
</svg>
